<svg viewBox="-18.000 -15.000 825.085 144.000" xmlns="http://www.w3.org/2000/svg">

<g transform="translate(0,3.000) scale(1.08000)"><path d="M0.00 100.00 L36.36 54.55 L48.48 75.76 L78.79 24.24 L93.94 65.15 L121.21 0.00 L122.73 0.00 L143.94 96.97 L143.94 100.00 L0.00 100.00 Z" fill="#F5F5F3"/></g>
<g transform="translate(193.455,70.000)"><path d="M133 0V677H11V810H434V677H313V0Z" transform="translate(0.000,0) scale(0.07407,-0.07407)" fill="#F5F5F3"/>
<path d="M292 -12Q201 -12 148.0 20.0Q95 52 72.0 112.0Q49 172 49 255V556Q49 640 72.0 699.0Q95 758 148.0 789.5Q201 821 292 821Q384 821 437.5 789.5Q491 758 514.0 699.0Q537 640 537 556V255Q537 172 514.0 112.0Q491 52 437.5 20.0Q384 -12 292 -12ZM292 115Q320 115 333.0 129.0Q346 143 350.0 165.0Q354 187 354 210V600Q354 624 350.0 645.5Q346 667 333.0 681.0Q320 695 292 695Q266 695 253.0 681.0Q240 667 236.0 645.5Q232 624 232 600V210Q232 187 235.5 165.0Q239 143 251.5 129.0Q264 115 292 115Z" transform="translate(35.037,0) scale(0.07407,-0.07407)" fill="#F5F5F3"/>
<path d="M60 0V810H332Q405 810 452.0 782.5Q499 755 522.0 702.5Q545 650 545 575Q545 481 514.0 431.5Q483 382 430.0 363.0Q377 344 311 344H239V0ZM239 469H299Q332 469 349.0 481.0Q366 493 371.5 517.0Q377 541 377 578Q377 609 372.5 632.5Q368 656 351.0 670.0Q334 684 298 684H239Z" transform="translate(80.519,0) scale(0.07407,-0.07407)" fill="#F5F5F3"/>
<path d="M57 0 71 810H263L352 339L448 810H633L647 0H520L505 539L411 0H298L198 543L186 0Z" transform="translate(145.926,0) scale(0.07407,-0.07407)" fill="#F5F5F3"/>
<path d="M292 -12Q201 -12 148.0 20.0Q95 52 72.0 112.0Q49 172 49 255V556Q49 640 72.0 699.0Q95 758 148.0 789.5Q201 821 292 821Q384 821 437.5 789.5Q491 758 514.0 699.0Q537 640 537 556V255Q537 172 514.0 112.0Q491 52 437.5 20.0Q384 -12 292 -12ZM292 115Q320 115 333.0 129.0Q346 143 350.0 165.0Q354 187 354 210V600Q354 624 350.0 645.5Q346 667 333.0 681.0Q320 695 292 695Q266 695 253.0 681.0Q240 667 236.0 645.5Q232 624 232 600V210Q232 187 235.5 165.0Q239 143 251.5 129.0Q264 115 292 115Z" transform="translate(200.148,0) scale(0.07407,-0.07407)" fill="#F5F5F3"/>
<path d="M294 -12Q201 -12 148.5 18.5Q96 49 75.0 107.5Q54 166 54 251V810H231V224Q231 199 235.0 174.0Q239 149 252.5 133.0Q266 117 294 117Q323 117 336.0 133.0Q349 149 352.5 174.0Q356 199 356 224V810H534V251Q534 166 512.5 107.5Q491 49 439.0 18.5Q387 -12 294 -12Z" transform="translate(245.630,0) scale(0.07407,-0.07407)" fill="#F5F5F3"/>
<path d="M60 0V810H186L352 420V810H500V0H379L213 420V0Z" transform="translate(291.259,0) scale(0.07407,-0.07407)" fill="#F5F5F3"/>
<path d="M133 0V677H11V810H434V677H313V0Z" transform="translate(334.889,0) scale(0.07407,-0.07407)" fill="#F5F5F3"/>
<path d="M21 0 174 810H378L529 0H364L337 171H218L190 0ZM234 278H320L277 594Z" transform="translate(369.926,0) scale(0.07407,-0.07407)" fill="#F5F5F3"/>
<path d="M61 0V810H240V0Z" transform="translate(412.815,0) scale(0.07407,-0.07407)" fill="#F5F5F3"/>
<path d="M60 0V810H186L352 420V810H500V0H379L213 420V0Z" transform="translate(437.185,0) scale(0.07407,-0.07407)" fill="#F5F5F3"/>
<path d="M60 0V810H424V688H239V487H380V363H239V121H426V0Z" transform="translate(480.815,0) scale(0.07407,-0.07407)" fill="#F5F5F3"/>
<path d="M60 0V810H424V688H239V487H380V363H239V121H426V0Z" transform="translate(516.000,0) scale(0.07407,-0.07407)" fill="#F5F5F3"/>
<path d="M60 0V810H283Q365 810 425.0 792.0Q485 774 518.5 727.5Q552 681 552 596Q552 546 544.0 507.0Q536 468 514.5 439.5Q493 411 453 392L564 0H379L290 363H239V0ZM239 466H289Q327 466 348.0 479.5Q369 493 377.5 518.5Q386 544 386 580Q386 632 367.0 661.0Q348 690 297 690H239Z" transform="translate(551.185,0) scale(0.07407,-0.07407)" fill="#F5F5F3"/></g>
<g transform="translate(193.455,104.000)"><path d="M20.625 0 192.375 810H295.625L468.375 0H367.875L330.25 206.5H159.625L120.125 0ZM173.75 282.375H316.25L244.5 661.75Z" transform="translate(0.000,0) scale(0.02222,-0.02222)" fill="#F5F5F3"/>
<path d="M251.875 -9.125Q182.625 -9.125 136.75 20.375Q90.875 49.875 67.1875 102.125Q43.5 154.375 39.375 223.625L132.75 249.125Q136.25 204.875 147.25 164.75Q158.25 124.625 183.0 99.5Q207.75 74.375 252 74.375Q298 74.375 322.0 99.5625Q346 124.75 346 173.75Q346 228.5 320.6875 263.125Q295.375 297.75 255.875 333.625L118.375 457Q78.75 492.375 60.0 533.4375Q41.25 574.5 41.25 632.875Q41.25 720.75 92.0625 769.0Q142.875 817.25 229.75 817.25Q276.875 817.25 312.9375 805.0Q349 792.75 373.5 767.0625Q398 741.375 412.4375 701.9375Q426.875 662.5 431.75 609L342 584.875Q338.875 627 329.125 661.0625Q319.375 695.125 296.0625 715.375Q272.75 735.625 229.875 735.625Q186.25 735.625 161.0625 712.4375Q135.875 689.25 135.875 643Q135.875 606.75 148.375 582.125Q160.875 557.5 189.625 531.375L327.75 408.375Q374.125 367.375 409.1875 312.0Q444.25 256.625 444.25 182Q444.25 121.875 419.5 78.875Q394.75 35.875 351.5625 13.375Q308.375 -9.125 251.875 -9.125Z" transform="translate(28.422,0) scale(0.02222,-0.02222)" fill="#F5F5F3"/>
<path d="M264.625 -9.25Q179.375 -9.25 132.5 26.375Q85.625 62 67.4375 122.3125Q49.25 182.625 49.25 256.625V549.875Q49.25 630.375 67.5625 690.5625Q85.875 750.75 132.8125 784.0Q179.75 817.25 264.625 817.25Q340 817.25 383.9375 789.25Q427.875 761.25 447.0625 709.3125Q466.25 657.375 466.25 584.875V523.75H366.125V578.75Q366.125 625.375 360.8125 660.625Q355.5 695.875 334.375 715.25Q313.25 734.625 265.5 734.625Q216.25 734.625 193.125 713.6875Q170 692.75 162.9375 654.5625Q155.875 616.375 155.875 565.5V239.875Q155.875 179 166.125 142.625Q176.375 106.25 200.375 90.25Q224.375 74.25 265.5 74.25Q312.5 74.25 333.625 95.0625Q354.75 115.875 360.4375 152.5625Q366.125 189.25 366.125 238.125V296.75H466.25V239.25Q466.25 165.875 448.5 109.6875Q430.75 53.5 387.25 22.125Q343.75 -9.25 264.625 -9.25Z" transform="translate(56.422,0) scale(0.02222,-0.02222)" fill="#F5F5F3"/>
<path d="M64.375 0V810H374.125V731H170.125V455.875H335.875V380.625H170.125V76.25H376.25V0Z" transform="translate(85.356,0) scale(0.02222,-0.02222)" fill="#F5F5F3"/>
<path d="M64.5 0V810H137.25L372.875 253.75V810H461.125V0H392.75L154.5 569.5V0Z" transform="translate(111.911,0) scale(0.02222,-0.02222)" fill="#F5F5F3"/>
<path d="M64.5 0V810H240.625Q329.5 810 381.0625 782.0625Q432.625 754.125 454.5625 699.375Q476.5 644.625 476.5 564.75V262Q476.5 178.125 454.5625 119.6875Q432.625 61.25 383.0 30.625Q333.375 0 249.125 0ZM170.125 76.25H241.75Q304.25 76.25 331.0 100.75Q357.75 125.25 363.8125 171.3125Q369.875 217.375 369.875 281.125V552Q369.875 614.5 361.375 654.0625Q352.875 693.625 325.125 712.3125Q297.375 731 238.875 731H170.125Z" transform="translate(141.156,0) scale(0.02222,-0.02222)" fill="#F5F5F3"/>
<path d="M69.875 0V810H173.75V0Z" transform="translate(170.400,0) scale(0.02222,-0.02222)" fill="#F5F5F3"/>
<path d="M64.5 0V810H137.25L372.875 253.75V810H461.125V0H392.75L154.5 569.5V0Z" transform="translate(193.356,0) scale(0.02222,-0.02222)" fill="#F5F5F3"/>
<path d="M255.5 -10.125Q179.375 -10.125 134.3125 22.25Q89.25 54.625 69.25 115.875Q49.25 177.125 49.25 262.125V542.25Q49.25 629 67.5 690.4375Q85.75 751.875 132.6875 784.5625Q179.625 817.25 263.75 817.25Q339.125 817.25 384.875 791.4375Q430.625 765.625 451.1875 713.1875Q471.75 660.75 471.75 581.875V552.125H372.5V577.875Q372.5 631.75 364.875 666.125Q357.25 700.5 334.8125 717.5625Q312.375 734.625 265.5 734.625Q214.375 734.625 190.8125 711.4375Q167.25 688.25 161.125 648.25Q155 608.25 155 557.375V250.75Q155 192.625 163.9375 153.0625Q172.875 113.5 197.75 93.875Q222.625 74.25 268.25 74.25Q313.5 74.25 338.1875 95.5Q362.875 116.75 372.1875 158.0Q381.5 199.25 381.5 260V323.875H275.25V399.125H477.125V0H410.625L400 92.75Q384.125 47.5 350.0625 18.6875Q316 -10.125 255.5 -10.125Z" transform="translate(222.600,0) scale(0.02222,-0.02222)" fill="#F5F5F3"/>
<path d="M251.875 -9.125Q182.625 -9.125 136.75 20.375Q90.875 49.875 67.1875 102.125Q43.5 154.375 39.375 223.625L132.75 249.125Q136.25 204.875 147.25 164.75Q158.25 124.625 183.0 99.5Q207.75 74.375 252 74.375Q298 74.375 322.0 99.5625Q346 124.75 346 173.75Q346 228.5 320.6875 263.125Q295.375 297.75 255.875 333.625L118.375 457Q78.75 492.375 60.0 533.4375Q41.25 574.5 41.25 632.875Q41.25 720.75 92.0625 769.0Q142.875 817.25 229.75 817.25Q276.875 817.25 312.9375 805.0Q349 792.75 373.5 767.0625Q398 741.375 412.4375 701.9375Q426.875 662.5 431.75 609L342 584.875Q338.875 627 329.125 661.0625Q319.375 695.125 296.0625 715.375Q272.75 735.625 229.875 735.625Q186.25 735.625 161.0625 712.4375Q135.875 689.25 135.875 643Q135.875 606.75 148.375 582.125Q160.875 557.5 189.625 531.375L327.75 408.375Q374.125 367.375 409.1875 312.0Q444.25 256.625 444.25 182Q444.25 121.875 419.5 78.875Q394.75 35.875 351.5625 13.375Q308.375 -9.125 251.875 -9.125Z" transform="translate(274.511,0) scale(0.02222,-0.02222)" fill="#F5F5F3"/>
<path d="M20.625 0 192.375 810H295.625L468.375 0H367.875L330.25 206.5H159.625L120.125 0ZM173.75 282.375H316.25L244.5 661.75Z" transform="translate(302.511,0) scale(0.02222,-0.02222)" fill="#F5F5F3"/>
<path d="M64.5 0V810H170.125V76.25H381.875V0Z" transform="translate(330.933,0) scale(0.02222,-0.02222)" fill="#F5F5F3"/>
<path d="M64.375 0V810H374.125V731H170.125V455.875H335.875V380.625H170.125V76.25H376.25V0Z" transform="translate(357.244,0) scale(0.02222,-0.02222)" fill="#F5F5F3"/>
<path d="M251.875 -9.125Q182.625 -9.125 136.75 20.375Q90.875 49.875 67.1875 102.125Q43.5 154.375 39.375 223.625L132.75 249.125Q136.25 204.875 147.25 164.75Q158.25 124.625 183.0 99.5Q207.75 74.375 252 74.375Q298 74.375 322.0 99.5625Q346 124.75 346 173.75Q346 228.5 320.6875 263.125Q295.375 297.75 255.875 333.625L118.375 457Q78.75 492.375 60.0 533.4375Q41.25 574.5 41.25 632.875Q41.25 720.75 92.0625 769.0Q142.875 817.25 229.75 817.25Q276.875 817.25 312.9375 805.0Q349 792.75 373.5 767.0625Q398 741.375 412.4375 701.9375Q426.875 662.5 431.75 609L342 584.875Q338.875 627 329.125 661.0625Q319.375 695.125 296.0625 715.375Q272.75 735.625 229.875 735.625Q186.25 735.625 161.0625 712.4375Q135.875 689.25 135.875 643Q135.875 606.75 148.375 582.125Q160.875 557.5 189.625 531.375L327.75 408.375Q374.125 367.375 409.1875 312.0Q444.25 256.625 444.25 182Q444.25 121.875 419.5 78.875Q394.75 35.875 351.5625 13.375Q308.375 -9.125 251.875 -9.125Z" transform="translate(383.800,0) scale(0.02222,-0.02222)" fill="#F5F5F3"/>
<path d="M64.5 0V810H264.125Q337.125 810 380.3125 783.375Q423.5 756.75 443.0625 707.125Q462.625 657.5 462.625 587.875Q462.625 525.125 440.875 477.875Q419.125 430.625 375.5 404.4375Q331.875 378.25 265.125 378.25H170.125V0ZM170.125 454.375H231.25Q280.25 454.375 308.6875 466.125Q337.125 477.875 349.5625 506.625Q362 535.375 362 587Q362 645.875 352.8125 677.5625Q343.625 709.25 316.125 721.5625Q288.625 733.875 232.25 733.875H170.125Z" transform="translate(434.333,0) scale(0.02222,-0.02222)" fill="#F5F5F3"/>
<path d="M64.375 0V810H374.125V731H170.125V455.875H335.875V380.625H170.125V76.25H376.25V0Z" transform="translate(462.578,0) scale(0.02222,-0.02222)" fill="#F5F5F3"/>
<path d="M20.625 0 192.375 810H295.625L468.375 0H367.875L330.25 206.5H159.625L120.125 0ZM173.75 282.375H316.25L244.5 661.75Z" transform="translate(489.133,0) scale(0.02222,-0.02222)" fill="#F5F5F3"/>
<path d="M64.375 0V810H170.125V418.875L362.25 810H460.875L299.5 454.75L488.75 0H385.75L226.25 385L170.125 283.375V0Z" transform="translate(517.556,0) scale(0.02222,-0.02222)" fill="#F5F5F3"/>
<path d="M251.875 -9.125Q182.625 -9.125 136.75 20.375Q90.875 49.875 67.1875 102.125Q43.5 154.375 39.375 223.625L132.75 249.125Q136.25 204.875 147.25 164.75Q158.25 124.625 183.0 99.5Q207.75 74.375 252 74.375Q298 74.375 322.0 99.5625Q346 124.75 346 173.75Q346 228.5 320.6875 263.125Q295.375 297.75 255.875 333.625L118.375 457Q78.75 492.375 60.0 533.4375Q41.25 574.5 41.25 632.875Q41.25 720.75 92.0625 769.0Q142.875 817.25 229.75 817.25Q276.875 817.25 312.9375 805.0Q349 792.75 373.5 767.0625Q398 741.375 412.4375 701.9375Q426.875 662.5 431.75 609L342 584.875Q338.875 627 329.125 661.0625Q319.375 695.125 296.0625 715.375Q272.75 735.625 229.875 735.625Q186.25 735.625 161.0625 712.4375Q135.875 689.25 135.875 643Q135.875 606.75 148.375 582.125Q160.875 557.5 189.625 531.375L327.75 408.375Q374.125 367.375 409.1875 312.0Q444.25 256.625 444.25 182Q444.25 121.875 419.5 78.875Q394.75 35.875 351.5625 13.375Q308.375 -9.125 251.875 -9.125Z" transform="translate(546.022,0) scale(0.02222,-0.02222)" fill="#F5F5F3"/></g>
</svg>
